HIERARCHY
ROOT joint_Root
{
	OFFSET 0.0 0.0 0.0
	CHANNELS 6 Xposition Yposition Zposition Zrotation Xrotation Yrotation 
	JOINT Hips
	{
		OFFSET -17.1583 93.1646 452.98
		CHANNELS 6 Xposition Yposition Zposition Zrotation Xrotation Yrotation 
		JOINT Spine
		{
			OFFSET 15.7357 0.0 0.0
			CHANNELS 6 Xposition Yposition Zposition Zrotation Xrotation Yrotation 
			JOINT Chest
			{
				OFFSET 8.98455 -0.406207 0.0
				CHANNELS 6 Xposition Yposition Zposition Zrotation Xrotation Yrotation 
				JOINT Neck
				{
					OFFSET 16.3773 0.0 0.0
					CHANNELS 6 Xposition Yposition Zposition Zrotation Xrotation Yrotation 
					JOINT Head
					{
						OFFSET 6.45672 0.0 0.0
						CHANNELS 6 Xposition Yposition Zposition Zrotation Xrotation Yrotation 
						End Site
						{
							OFFSET 0.0 0.0 0.0
						}
					}
				}
				JOINT Shoulder_L
				{
					OFFSET 12.9942 -0.242716 4.98039
					CHANNELS 6 Xposition Yposition Zposition Zrotation Xrotation Yrotation 
					JOINT UpperArm_L
					{
						OFFSET 5.34809 0.0 0.0
						CHANNELS 6 Xposition Yposition Zposition Zrotation Xrotation Yrotation 
						JOINT LowerArm_L
						{
							OFFSET 24.3286 1.87007e-05 0.0
							CHANNELS 6 Xposition Yposition Zposition Zrotation Xrotation Yrotation 
							JOINT Hand_L
							{
								OFFSET 22.2916 0.0 0.0
								CHANNELS 6 Xposition Yposition Zposition Zrotation Xrotation Yrotation 
								End Site
								{
									OFFSET 0.0 0.0 0.0
								}
							}
						}
					}
				}
				JOINT Shoulder_R
				{
					OFFSET 12.9945 -0.242716 -4.98039
					CHANNELS 6 Xposition Yposition Zposition Zrotation Xrotation Yrotation 
					JOINT UpperArm_R
					{
						OFFSET -5.34813 0.0 0.0
						CHANNELS 6 Xposition Yposition Zposition Zrotation Xrotation Yrotation 
						JOINT LowerArm_R
						{
							OFFSET -24.3289 0.000322201 0.0
							CHANNELS 6 Xposition Yposition Zposition Zrotation Xrotation Yrotation 
							JOINT Hand_R
							{
								OFFSET -22.2915 -0.000108084 0.0
								CHANNELS 6 Xposition Yposition Zposition Zrotation Xrotation Yrotation 
								End Site
								{
									OFFSET 0.0 0.0 0.0
								}
							}
						}
					}
				}
			}
		}
		JOINT UpperLeg_L
		{
			OFFSET -2.19248 -6.46944 0.0
			CHANNELS 6 Xposition Yposition Zposition Zrotation Xrotation Yrotation 
			JOINT LowerLeg_L
			{
				OFFSET 39.0811 0.0 -1.23785e-05
				CHANNELS 6 Xposition Yposition Zposition Zrotation Xrotation Yrotation 
				JOINT Foot_L
				{
					OFFSET 40.9854 0.0 -1.26872e-05
					CHANNELS 6 Xposition Yposition Zposition Zrotation Xrotation Yrotation 
					JOINT Toes_L
					{
						OFFSET 11.7543 0.0 0.0
						CHANNELS 6 Xposition Yposition Zposition Zrotation Xrotation Yrotation 
						End Site
						{
							OFFSET 0.0 0.0 0.0
						}
					}
				}
			}
		}
		JOINT UpperLeg_R
		{
			OFFSET -2.19251 6.46944 0.0
			CHANNELS 6 Xposition Yposition Zposition Zrotation Xrotation Yrotation 
			JOINT LowerLeg_R
			{
				OFFSET -39.0811 -0.00228153 -0.0401928
				CHANNELS 6 Xposition Yposition Zposition Zrotation Xrotation Yrotation 
				JOINT Foot_R
				{
					OFFSET -40.9854 0.0 0.0
					CHANNELS 6 Xposition Yposition Zposition Zrotation Xrotation Yrotation 
					JOINT Toes_R
					{
						OFFSET -11.7543 0.0 0.0
						CHANNELS 6 Xposition Yposition Zposition Zrotation Xrotation Yrotation 
						End Site
						{
							OFFSET 0.0 0.0 0.0
						}
					}
				}
			}
		}
	}
}
MOTION
Frames:	9
Frame Time:	0.0333333
0.000000 0.000000 0.000000 0.000000 0.000000 -0.000000 -1.511700 91.640600 0.918309 84.968400 -1.752650 9.792840 15.735700 0.000005 -0.000001 75.415500 85.142800 -72.437800 8.984550 -0.406207 -0.000000 1.711690 -2.601920 5.989710 16.377300 -0.000001 -0.000001 16.654300 4.430310 7.489940 6.456720 -0.000001 -0.000000 -9.321580 1.932330 20.329600 12.994200 -0.242716 4.980390 -92.397700 6.257960 -68.987100 5.348090 -0.000007 -0.000001 -79.481500 -20.266700 -9.926930 24.328600 0.000019 0.000005 28.808000 -32.883100 -134.633000 22.291600 -0.000001 0.000005 41.216600 4.969540 7.960670 12.994500 -0.242716 -4.980390 86.217400 8.662380 -66.299900 -5.348130 -0.000001 -0.000004 -70.051200 -6.628930 -10.860900 -24.328900 0.000322 -0.000009 13.624400 -15.537400 -137.859000 -22.291500 -0.000108 -0.000004 49.449000 5.646530 -14.693700 -2.192480 -6.469440 -0.000000 -175.567000 -0.293054 3.212980 39.081100 -0.000007 -0.000012 0.435392 -0.809794 28.266300 40.985400 -0.000006 -0.000013 1.581570 1.126570 -76.845900 11.754300 -0.000000 0.000003 -0.001123 0.184767 -9.081630 -2.192510 6.469440 -0.000001 -173.328000 8.241370 -170.698000 -39.081100 -0.002282 -0.040193 0.154180 -0.465339 17.962000 -40.985400 0.000008 0.000006 4.510980 4.115920 -73.218100 -11.754300 -0.000006 -0.000006 -0.011647 0.283225 -5.063180
0.000000 0.000000 0.000000 0.000000 0.000000 -0.000000 -1.474030 91.651600 0.865913 84.971800 -1.713260 9.755250 15.735700 0.000005 -0.000001 75.578700 85.173500 -72.640600 8.984550 -0.406207 -0.000000 1.656900 -2.559220 5.908900 16.377300 -0.000001 -0.000001 16.601500 4.370780 7.446950 6.456720 -0.000001 -0.000000 -9.355290 1.839390 20.259600 12.994200 -0.242716 4.980390 -92.415100 6.290790 -68.947500 5.348090 -0.000007 -0.000001 -79.413700 -20.295300 -9.858070 24.328600 0.000019 0.000005 28.804600 -32.737800 -134.524000 22.291600 -0.000001 0.000005 40.974200 4.969500 7.961040 12.994500 -0.242716 -4.980390 86.235700 8.636430 -66.339500 -5.348130 -0.000001 -0.000004 -69.967400 -6.401890 -10.795400 -24.328900 0.000322 -0.000009 13.768800 -15.623600 -137.701000 -22.291500 -0.000108 -0.000004 49.670900 5.643640 -14.436400 -2.192480 -6.469440 -0.000000 -175.596000 -0.310806 3.145580 39.081100 -0.000007 -0.000012 0.433488 -0.807293 28.235500 40.985400 -0.000006 -0.000013 1.622560 1.152080 -76.761400 11.754300 -0.000000 0.000003 -0.001107 0.184538 -9.090900 -2.192510 6.469440 -0.000001 -173.337000 8.171920 -170.791000 -39.081100 -0.002282 -0.040193 0.152454 -0.459551 17.979000 -40.985400 0.000008 0.000006 4.420800 4.060510 -73.144000 -11.754300 -0.000006 -0.000006 -0.011424 0.281657 -5.127350
0.000000 0.000000 0.000000 0.000000 0.000000 -0.000000 -1.438450 91.664800 0.823252 85.004800 -1.659750 9.762940 15.735700 0.000005 -0.000001 75.698200 85.182600 -72.810600 8.984550 -0.406207 -0.000000 1.642240 -2.532940 5.807010 16.377300 -0.000001 -0.000001 16.550800 4.316770 7.432470 6.456720 -0.000001 -0.000000 -9.350760 1.729080 20.180400 12.994200 -0.242716 4.980390 -92.436700 6.354840 -68.970300 5.348090 -0.000007 -0.000001 -79.290900 -20.319400 -9.804860 24.328600 0.000019 0.000005 28.728300 -32.541800 -134.461000 22.291600 -0.000001 0.000005 41.199100 4.964300 8.069330 12.994500 -0.242716 -4.980390 86.254400 8.621800 -66.409100 -5.348130 -0.000001 -0.000004 -69.983300 -6.406750 -10.772800 -24.328900 0.000322 -0.000009 13.717700 -15.508800 -137.606000 -22.291500 -0.000108 -0.000004 49.489200 5.646690 -14.707500 -2.192480 -6.469440 -0.000000 -175.674000 -0.218230 3.141120 39.081100 -0.000007 -0.000012 0.433699 -0.809769 28.174000 40.985400 -0.000006 -0.000013 1.639670 1.123440 -76.683800 11.754300 -0.000000 0.000003 -0.000961 0.182476 -9.174720 -2.192510 6.469440 -0.000001 -173.386000 8.169000 -170.822000 -39.081100 -0.002282 -0.040193 0.150914 -0.454614 17.986100 -40.985400 0.000008 0.000006 4.333970 4.022980 -73.104900 -11.754300 -0.000006 -0.000006 -0.011235 0.280312 -5.182430
0.000000 0.000000 0.000000 0.000000 0.000000 -0.000000 -1.407000 91.677400 0.760336 85.021000 -1.546430 9.753280 15.735700 0.000005 -0.000001 75.815200 85.204800 -72.976700 8.984550 -0.406207 -0.000000 1.601740 -2.501380 5.707640 16.377300 -0.000001 -0.000001 16.546900 4.223070 7.460440 6.456720 -0.000001 -0.000000 -9.361760 1.591610 20.091000 12.994200 -0.242716 4.980390 -92.440800 6.375030 -68.998500 5.348090 -0.000007 -0.000001 -79.173700 -20.302300 -9.722220 24.328600 0.000019 0.000005 28.791500 -32.440000 -134.307000 22.291600 -0.000001 0.000005 41.148200 4.959600 8.166410 12.994500 -0.242716 -4.980390 86.248600 8.624350 -66.382700 -5.348130 -0.000001 -0.000004 -69.914500 -6.266810 -10.716900 -24.328900 0.000322 -0.000009 13.654600 -15.388900 -137.526000 -22.291500 -0.000108 -0.000004 49.302200 5.645510 -14.601000 -2.192480 -6.469440 -0.000000 -175.731000 -0.102651 3.087670 39.081100 -0.000007 -0.000012 0.431260 -0.806256 28.143100 40.985400 -0.000006 -0.000013 1.661700 1.123330 -76.620600 11.754300 -0.000000 0.000003 -0.000809 0.180288 -9.263640 -2.192510 6.469440 -0.000001 -173.395000 8.133260 -170.887000 -39.081100 -0.002282 -0.040193 0.151003 -0.454877 17.986400 -40.985400 0.000008 0.000006 4.292030 3.910360 -73.075200 -11.754300 -0.000006 -0.000006 -0.011159 0.279770 -5.204620
0.000000 0.000000 0.000000 0.000000 0.000000 -0.000000 -1.384110 91.683900 0.712067 85.026400 -1.424930 9.735370 15.735700 0.000005 -0.000001 75.833200 85.216200 -73.045600 8.984550 -0.406207 -0.000000 1.578940 -2.490770 5.605260 16.377300 -0.000001 -0.000001 16.567300 4.152360 7.443290 6.456720 -0.000001 -0.000000 -9.367750 1.469090 20.088200 12.994200 -0.242716 4.980390 -92.443300 6.393320 -69.033700 5.348090 -0.000007 -0.000001 -79.225600 -20.550300 -9.817730 24.328600 0.000019 0.000005 28.944500 -32.412700 -134.104000 22.291600 -0.000001 0.000005 40.721800 4.957890 8.202160 12.994500 -0.242716 -4.980390 86.252700 8.622580 -66.401300 -5.348130 -0.000001 -0.000004 -69.895900 -6.108000 -10.732100 -24.328900 0.000322 -0.000009 13.632600 -15.294100 -137.402000 -22.291500 -0.000108 -0.000004 49.323400 5.643820 -14.454600 -2.192480 -6.469440 -0.000000 -175.761000 -0.050881 2.999350 39.081100 -0.000007 -0.000012 0.432369 -0.808070 28.150800 40.985400 -0.000006 -0.000013 1.689990 1.157950 -76.530400 11.754300 -0.000000 0.000003 -0.000811 0.180319 -9.262370 -2.192510 6.469440 -0.000001 -173.410000 8.159230 -170.971000 -39.081100 -0.002282 -0.040193 0.150139 -0.451125 18.027100 -40.985400 0.000008 0.000006 4.203160 3.848140 -73.052900 -11.754300 -0.000006 -0.000006 -0.011355 0.281164 -5.147570
0.000000 0.000000 0.000000 0.000000 0.000000 -0.000000 -1.365060 91.695800 0.663694 85.018600 -1.319440 9.751870 15.735700 0.000005 -0.000001 75.907900 85.220600 -73.159200 8.984550 -0.406207 -0.000000 1.571970 -2.474610 5.527180 16.377300 -0.000001 -0.000001 16.584600 4.090200 7.462180 6.456720 -0.000001 -0.000000 -9.351660 1.363670 19.978800 12.994200 -0.242716 4.980390 -92.464900 6.452000 -69.039400 5.348090 -0.000007 -0.000001 -79.122100 -20.728500 -9.826480 24.328600 0.000019 0.000005 29.032300 -32.273800 -133.891000 22.291600 -0.000001 0.000005 40.744400 4.951810 8.327590 12.994500 -0.242716 -4.980390 86.266500 8.585290 -66.388600 -5.348130 -0.000001 -0.000004 -69.821800 -5.872490 -10.725900 -24.328900 0.000322 -0.000009 13.913700 -15.488100 -137.147000 -22.291500 -0.000108 -0.000004 49.697100 5.641880 -14.284200 -2.192480 -6.469440 -0.000000 -175.798000 0.114984 2.977370 39.081100 -0.000007 -0.000012 0.429147 -0.802644 28.133100 40.985400 -0.000006 -0.000013 1.680110 1.086410 -76.504400 11.754300 -0.000000 0.000003 -0.001009 0.183166 -9.146700 -2.192510 6.469440 -0.000001 -173.432000 8.233720 -170.967000 -39.081100 -0.002282 -0.040193 0.147080 -0.442879 17.983300 -40.985400 0.000008 0.000006 4.162570 3.825610 -73.029200 -11.754300 -0.000006 -0.000006 -0.011432 0.281714 -5.125050
0.000000 0.000000 0.000000 0.000000 0.000000 -0.000000 -1.354170 91.694800 0.607578 85.007800 -1.197570 9.680830 15.735700 0.000005 -0.000001 76.026100 85.243200 -73.325000 8.984550 -0.406207 -0.000000 1.530710 -2.442960 5.430670 16.377300 -0.000001 -0.000001 16.539400 4.005110 7.472320 6.456720 -0.000001 -0.000000 -9.344370 1.270700 19.940200 12.994200 -0.242716 4.980390 -92.456500 6.429350 -69.037200 5.348090 -0.000007 -0.000001 -79.091800 -20.862200 -9.905020 24.328600 0.000019 0.000005 29.207400 -32.179900 -133.611000 22.291600 -0.000001 0.000005 40.927700 4.947310 8.420240 12.994500 -0.242716 -4.980390 86.260500 8.595950 -66.381000 -5.348130 -0.000001 -0.000004 -69.845200 -5.801160 -10.691600 -24.328900 0.000322 -0.000009 13.874300 -15.382700 -137.041000 -22.291500 -0.000108 -0.000004 49.594200 5.642710 -14.355100 -2.192480 -6.469440 -0.000000 -175.831000 0.273231 2.807410 39.081100 -0.000007 -0.000012 0.430973 -0.803705 28.202900 40.985400 -0.000006 -0.000013 1.675740 1.034240 -76.469900 11.754300 -0.000000 0.000003 -0.000931 0.182050 -9.192050 -2.192510 6.469440 -0.000001 -173.414000 8.299430 -171.121000 -39.081100 -0.002282 -0.040193 0.149412 -0.448449 18.043800 -40.985400 0.000008 0.000006 4.187800 3.786860 -73.024100 -11.754300 -0.000006 -0.000006 -0.011427 0.281677 -5.126550
0.000000 0.000000 0.000000 0.000000 0.000000 -0.000000 -1.338350 91.711200 0.566940 84.993500 -1.137460 9.659090 15.735700 0.000005 -0.000001 76.119100 85.254000 -73.447700 8.984550 -0.406207 -0.000000 1.512210 -2.421640 5.370650 16.377300 -0.000001 -0.000001 16.503100 3.983890 7.421870 6.456720 -0.000001 -0.000000 -9.307800 1.188730 19.877200 12.994200 -0.242716 4.980390 -92.478300 6.484190 -69.029800 5.348090 -0.000007 -0.000001 -79.016800 -21.159400 -9.930030 24.328600 0.000019 0.000005 29.043900 -31.861000 -133.548000 22.291600 -0.000001 0.000005 40.829500 4.946620 8.434430 12.994500 -0.242716 -4.980390 86.295000 8.550340 -66.464900 -5.348130 -0.000001 -0.000004 -69.798600 -5.684710 -10.567500 -24.328900 0.000322 -0.000009 13.790700 -15.236300 -136.954000 -22.291500 -0.000108 -0.000004 49.358600 5.644600 -14.519900 -2.192480 -6.469440 -0.000000 -175.865000 0.413876 2.772490 39.081100 -0.000007 -0.000012 0.431797 -0.806996 28.150900 40.985400 -0.000006 -0.000013 1.674530 0.971413 -76.402200 11.754300 -0.000000 0.000003 -0.000901 0.181620 -9.209520 -2.192510 6.469440 -0.000001 -173.426000 8.322990 -171.162000 -39.081100 -0.002282 -0.040193 0.144093 -0.432832 18.016000 -40.985400 0.000008 0.000006 3.987350 3.797990 -72.957500 -11.754300 -0.000006 -0.000006 -0.011146 0.279679 -5.208360
0.000000 0.000000 0.000000 0.000000 0.000000 -0.000000 -1.327010 91.724200 0.508790 85.005900 -1.040950 9.513560 15.735700 0.000005 -0.000001 76.328800 85.310700 -73.708500 8.984550 -0.406207 -0.000000 1.407520 -2.360820 5.265800 16.377300 -0.000001 -0.000001 16.439700 3.921300 7.401900 6.456720 -0.000001 -0.000000 -9.300420 1.083670 19.835000 12.994200 -0.242716 4.980390 -92.462400 6.454870 -69.066800 5.348090 -0.000007 -0.000001 -79.027800 -21.354400 -9.911240 24.328600 0.000019 0.000005 29.001800 -31.622300 -133.405000 22.291600 -0.000001 0.000005 40.498500 4.947370 8.418950 12.994500 -0.242716 -4.980390 86.296500 8.531190 -66.426900 -5.348130 -0.000001 -0.000004 -69.733200 -5.461160 -10.489100 -24.328900 0.000322 -0.000009 13.933000 -15.270600 -136.712000 -22.291500 -0.000108 -0.000004 49.399500 5.642800 -14.364900 -2.192480 -6.469440 -0.000000 -175.912000 0.549012 2.578240 39.081100 -0.000007 -0.000012 0.426222 -0.797293 28.129600 40.985400 -0.000006 -0.000013 1.658080 0.888121 -76.347000 11.754300 -0.000000 0.000003 -0.000938 0.182153 -9.187850 -2.192510 6.469440 -0.000001 -173.401000 8.336780 -171.328000 -39.081100 -0.002282 -0.040193 0.146536 -0.442015 17.952300 -40.985400 0.000008 0.000006 4.100560 3.696980 -72.940400 -11.754300 -0.000006 -0.000006 -0.011447 0.281821 -5.120670
